<mxfile host="65bd71144e" modified="2020-11-18T17:55:40.784Z" agent="5.0 (Windows NT 6.1; Win64; x64) AppleWebKit/537.36 (KHTML, like Gecko) Code/1.51.1 Chrome/83.0.4103.122 Electron/9.3.3 Safari/537.36" etag="_7o0qhYmvWV5EaGglod0" version="13.6.5">
    <diagram id="wTPVCSFg2L7csEUlhPjk" name="Page-1">
        <mxGraphModel dx="752" dy="343" grid="1" gridSize="10" guides="1" tooltips="1" connect="1" arrows="1" fold="1" page="1" pageScale="1" pageWidth="850" pageHeight="1100" math="0" shadow="0">
            <root>
                <mxCell id="0"/>
                <mxCell id="1" parent="0"/>
                <mxCell id="VWracyMeEao_2png_inv-1" value="Merch shop header" style="rounded=0;whiteSpace=wrap;html=1;fillColor=#21C0A5;strokeColor=#006658;fontColor=#5C5C5C;" parent="1" vertex="1">
                    <mxGeometry x="150" y="40" width="580" height="130" as="geometry"/>
                </mxCell>
                <mxCell id="jlL-lYNdo3vN1ECoFAxW-1" value="" style="rounded=0;whiteSpace=wrap;html=1;fillColor=#21C0A5;strokeColor=#006658;fontColor=#5C5C5C;" parent="1" vertex="1">
                    <mxGeometry x="150" y="200" width="580" height="350" as="geometry"/>
                </mxCell>
                <mxCell id="jlL-lYNdo3vN1ECoFAxW-3" value="StoreController" style="text;html=1;strokeColor=none;fillColor=none;align=center;verticalAlign=middle;whiteSpace=wrap;rounded=0;fontColor=#5C5C5C;" parent="1" vertex="1">
                    <mxGeometry x="388.75" y="200" width="40" height="20" as="geometry"/>
                </mxCell>
                <mxCell id="jlL-lYNdo3vN1ECoFAxW-4" value="" style="rounded=0;whiteSpace=wrap;html=1;fillColor=#21C0A5;strokeColor=#006658;fontColor=#5C5C5C;" parent="1" vertex="1">
                    <mxGeometry x="175" y="230" width="495" height="160" as="geometry"/>
                </mxCell>
                <mxCell id="jlL-lYNdo3vN1ECoFAxW-6" value="" style="rounded=0;whiteSpace=wrap;html=1;fillColor=#21C0A5;strokeColor=#006658;fontColor=#5C5C5C;" parent="1" vertex="1">
                    <mxGeometry x="205" y="260" width="345" height="120" as="geometry"/>
                </mxCell>
                <mxCell id="uVa9yBhB3VM12gmpgDGA-5" value="Item" style="text;html=1;strokeColor=none;fillColor=none;align=center;verticalAlign=middle;whiteSpace=wrap;rounded=0;fontColor=#5C5C5C;" parent="1" vertex="1">
                    <mxGeometry x="230" y="280" width="40" height="20" as="geometry"/>
                </mxCell>
                <mxCell id="uVa9yBhB3VM12gmpgDGA-6" value="Item List" style="text;html=1;strokeColor=none;fillColor=none;align=center;verticalAlign=middle;whiteSpace=wrap;rounded=0;fontColor=#5C5C5C;" parent="1" vertex="1">
                    <mxGeometry x="330" y="230" width="157.5" height="20" as="geometry"/>
                </mxCell>
                <mxCell id="uVa9yBhB3VM12gmpgDGA-8" value="" style="rounded=0;whiteSpace=wrap;html=1;fillColor=#21C0A5;strokeColor=#006658;fontColor=#5C5C5C;" parent="1" vertex="1">
                    <mxGeometry x="180" y="430" width="120" height="60" as="geometry"/>
                </mxCell>
                <mxCell id="uVa9yBhB3VM12gmpgDGA-9" value="" style="rounded=0;whiteSpace=wrap;html=1;fillColor=#21C0A5;strokeColor=#006658;fontColor=#5C5C5C;" parent="1" vertex="1">
                    <mxGeometry x="215" y="310" width="70" height="50" as="geometry"/>
                </mxCell>
                <mxCell id="uVa9yBhB3VM12gmpgDGA-13" value="Add to cart" style="text;html=1;strokeColor=none;fillColor=none;align=center;verticalAlign=middle;whiteSpace=wrap;rounded=0;fontColor=#5C5C5C;" parent="1" vertex="1">
                    <mxGeometry x="220" y="330" width="40" height="20" as="geometry"/>
                </mxCell>
                <mxCell id="3" value="" style="rounded=0;whiteSpace=wrap;html=1;fillColor=#21C0A5;strokeColor=#006658;fontColor=#5C5C5C;" vertex="1" parent="1">
                    <mxGeometry x="300" y="310" width="90" height="55" as="geometry"/>
                </mxCell>
                <mxCell id="4" value="Restock" style="text;html=1;strokeColor=none;fillColor=none;align=center;verticalAlign=middle;whiteSpace=wrap;rounded=0;fontColor=#5C5C5C;" vertex="1" parent="1">
                    <mxGeometry x="310" y="320" width="40" height="20" as="geometry"/>
                </mxCell>
                <mxCell id="5" value="Cart" style="text;html=1;strokeColor=none;fillColor=none;align=center;verticalAlign=middle;whiteSpace=wrap;rounded=0;fontColor=#5C5C5C;" vertex="1" parent="1">
                    <mxGeometry x="190" y="440" width="40" height="20" as="geometry"/>
                </mxCell>
            </root>
        </mxGraphModel>
    </diagram>
</mxfile>